<svg version="1.0" preserveAspectRatio="xMidYMid meet" viewBox="82.60967379077616 215.459998138 1248.8638920134983 320.75999722800003" zoomAndPan="magnify" xmlns:xlink="http://www.w3.org/1999/xlink" xmlns="http://www.w3.org/2000/svg" style="max-height: 500px" width="1248.8638920134983" height="320.75999722800003"><defs><g/><clipPath id="858a7db5e6"><rect height="131" y="0" width="1204" x="0"/></clipPath><clipPath id="e75b9f36f3"><path clip-rule="nonzero" d="M 0.160156 1 L 7 1 L 7 10 L 0.160156 10 Z M 0.160156 1"/></clipPath><clipPath id="cc8a9590ff"><path clip-rule="nonzero" d="M 6 1 L 16.238281 1 L 16.238281 10 L 6 10 Z M 6 1"/></clipPath><clipPath id="4762cb0e88"><path clip-rule="nonzero" d="M 0.160156 1 L 7 1 L 7 10 L 0.160156 10 Z M 0.160156 1"/></clipPath><clipPath id="b0e724746e"><rect height="14" y="0" width="17" x="0"/></clipPath><clipPath id="24b1684aae"><path clip-rule="nonzero" d="M 0.160156 72 L 52 72 L 52 102 L 0.160156 102 Z M 0.160156 72"/></clipPath><clipPath id="0deb8f1110"><path clip-rule="nonzero" d="M 45.589844 119.597656 L 63.703125 119.597656 L 63.703125 137.714844 L 45.589844 137.714844 Z M 45.589844 119.597656"/></clipPath><clipPath id="6916706bff"><path clip-rule="nonzero" d="M 48.230469 122.238281 L 61.171875 122.238281 L 61.171875 135.179688 L 48.230469 135.179688 Z M 48.230469 122.238281"/></clipPath><clipPath id="5bb1c4d748"><path clip-rule="nonzero" d="M 20.257812 29.03125 L 109.113281 29.03125 L 109.113281 271.441406 L 20.257812 271.441406 Z M 20.257812 29.03125"/></clipPath><clipPath id="02b682cc40"><path clip-rule="nonzero" d="M 0.191406 87.707031 L 18.304688 87.707031 L 18.304688 105.824219 L 0.191406 105.824219 Z M 0.191406 87.707031"/></clipPath><clipPath id="2cf54226e4"><path clip-rule="nonzero" d="M 117.628906 94.042969 L 135.742188 94.042969 L 135.742188 112 L 117.628906 112 Z M 117.628906 94.042969"/></clipPath><clipPath id="7173e0dc30"><path clip-rule="nonzero" d="M 130.867188 55.226562 L 148.960938 55.226562 L 148.960938 73.34375 L 130.867188 73.34375 Z M 130.867188 55.226562"/></clipPath><clipPath id="c824317d50"><path clip-rule="nonzero" d="M 103.554688 13.945312 L 121.671875 13.945312 L 121.671875 32 L 103.554688 32 Z M 103.554688 13.945312"/></clipPath><clipPath id="93e8bedcd5"><path clip-rule="nonzero" d="M 79.964844 35.699219 L 98 35.699219 L 98 53.8125 L 79.964844 53.8125 Z M 79.964844 35.699219"/></clipPath><clipPath id="3451eec368"><path clip-rule="nonzero" d="M 39.535156 9.523438 L 53 9.523438 L 53 23 L 39.535156 23 Z M 39.535156 9.523438"/></clipPath><clipPath id="29307da67b"><path clip-rule="nonzero" d="M 50.445312 0.546875 L 64 0.546875 L 64 14 L 50.445312 14 Z M 50.445312 0.546875"/></clipPath><clipPath id="ee1811a146"><path clip-rule="nonzero" d="M 36.210938 45.015625 L 93.144531 45.015625 L 93.144531 200.296875 L 36.210938 200.296875 Z M 36.210938 45.015625"/></clipPath><clipPath id="5e8a8bf006"><path clip-rule="nonzero" d="M 133.511719 57.867188 L 146.449219 57.867188 L 146.449219 70.808594 L 133.511719 70.808594 Z M 133.511719 57.867188"/></clipPath><clipPath id="fa2ef8a3e6"><path clip-rule="nonzero" d="M 106.195312 16.589844 L 119.136719 16.589844 L 119.136719 29.527344 L 106.195312 29.527344 Z M 106.195312 16.589844"/></clipPath><clipPath id="c38e54983b"><path clip-rule="nonzero" d="M 2.832031 90.347656 L 15.769531 90.347656 L 15.769531 103.289062 L 2.832031 103.289062 Z M 2.832031 90.347656"/></clipPath><clipPath id="dc1266bb4d"><path clip-rule="nonzero" d="M 120.269531 96.6875 L 133.210938 96.6875 L 133.210938 109.625 L 120.269531 109.625 Z M 120.269531 96.6875"/></clipPath><clipPath id="6fd57c6314"><path clip-rule="nonzero" d="M 82.609375 38.339844 L 95.546875 38.339844 L 95.546875 51.277344 L 82.609375 51.277344 Z M 82.609375 38.339844"/></clipPath><clipPath id="a7ac0a4bbc"><path clip-rule="nonzero" d="M 52.992188 3.09375 L 61.617188 3.09375 L 61.617188 11.71875 L 52.992188 11.71875 Z M 52.992188 3.09375"/></clipPath><clipPath id="76126c380a"><path clip-rule="nonzero" d="M 42.070312 12.058594 L 50.695312 12.058594 L 50.695312 20.683594 L 42.070312 20.683594 Z M 42.070312 12.058594"/></clipPath><clipPath id="d543fdf312"><rect height="272" y="0" width="149" x="0"/></clipPath></defs><g transform="matrix(1, 0, 0, 1, 95, 387)"><g clip-path="url(#858a7db5e6)"><g fill-opacity="1" fill="#f2efeb"><g transform="translate(1.034616, 93.85362)"><g><path d="M 6.265625 -86.140625 L 37.703125 -86.140625 C 46.472656 -86.140625 53.570312 -83.878906 59 -79.359375 C 64.425781 -74.835938 67.140625 -68.257812 67.140625 -59.625 C 67.140625 -50.988281 64.390625 -44.21875 58.890625 -39.3125 C 53.390625 -34.40625 46.328125 -31.953125 37.703125 -31.953125 L 25.890625 -31.953125 L 25.890625 0 L 6.265625 0 Z M 25.890625 -47.609375 L 31.4375 -47.609375 C 35.820312 -47.609375 39.421875 -48.492188 42.234375 -50.265625 C 45.054688 -52.046875 46.46875 -54.957031 46.46875 -59 C 46.46875 -63.101562 45.054688 -66.039062 42.234375 -67.8125 C 39.421875 -69.59375 35.820312 -70.484375 31.4375 -70.484375 L 25.890625 -70.484375 Z M 25.890625 -47.609375"/></g></g></g><g fill-opacity="1" fill="#f2efeb"><g transform="translate(70.579538, 93.85362)"><g><path d="M 25.890625 -86.140625 L 25.890625 -17.234375 L 55.546875 -17.234375 L 55.546875 0 L 6.265625 0 L 6.265625 -86.140625 Z M 25.890625 -86.140625"/></g></g></g><g fill-opacity="1" fill="#f2efeb"><g transform="translate(129.577861, 93.85362)"><g><path d="M 55.546875 -86.140625 L 55.546875 -68.921875 L 25.890625 -68.921875 L 25.890625 -51.796875 L 54.296875 -51.796875 L 54.296875 -34.5625 L 25.890625 -34.5625 L 25.890625 -17.234375 L 55.546875 -17.234375 L 55.546875 0 L 6.265625 0 L 6.265625 -86.140625 Z M 55.546875 -86.140625"/></g></g></g><g fill-opacity="1" fill="#f2efeb"><g transform="translate(190.142494, 93.85362)"><g><path d="M 25.890625 -86.140625 L 25.890625 0 L 6.265625 0 L 6.265625 -86.140625 Z M 25.890625 -86.140625"/></g></g></g><g fill-opacity="1" fill="#f2efeb"><g transform="translate(222.304434, 93.85362)"><g><path d="M 2.40625 -43.125 C 2.40625 -55.582031 6.648438 -66.128906 15.140625 -74.765625 C 23.628906 -83.398438 33.863281 -87.71875 45.84375 -87.71875 C 57.882812 -87.71875 68.113281 -83.414062 76.53125 -74.8125 C 84.957031 -66.21875 89.171875 -55.65625 89.171875 -43.125 C 89.171875 -30.519531 85.03125 -19.921875 76.75 -11.328125 C 68.46875 -2.734375 58.164062 1.5625 45.84375 1.5625 C 33.238281 1.5625 22.847656 -2.695312 14.671875 -11.21875 C 6.492188 -19.75 2.40625 -30.382812 2.40625 -43.125 Z M 23.59375 -43.125 C 23.59375 -38.601562 24.289062 -34.476562 25.6875 -30.75 C 27.082031 -27.03125 29.519531 -23.878906 33 -21.296875 C 36.476562 -18.722656 40.757812 -17.4375 45.84375 -17.4375 C 53.15625 -17.4375 58.671875 -19.941406 62.390625 -24.953125 C 66.117188 -29.960938 67.984375 -36.019531 67.984375 -43.125 C 67.984375 -50.15625 66.082031 -56.191406 62.28125 -61.234375 C 58.488281 -66.285156 53.007812 -68.8125 45.84375 -68.8125 C 38.738281 -68.8125 33.253906 -66.285156 29.390625 -61.234375 C 25.523438 -56.191406 23.59375 -50.15625 23.59375 -43.125 Z M 23.59375 -43.125"/></g></g></g><g fill-opacity="1" fill="#f2efeb"><g transform="translate(313.88234, 93.85362)"><g><path d="M 25.890625 -53.46875 L 25.890625 0 L 6.265625 0 L 6.265625 -86.140625 L 25.890625 -86.140625 L 60.140625 -32.6875 L 60.359375 -32.6875 L 60.359375 -86.140625 L 79.984375 -86.140625 L 79.984375 0 L 60.359375 0 L 26.109375 -53.46875 Z M 25.890625 -53.46875"/></g></g></g><g fill-opacity="1" fill="#f2efeb"><g transform="translate(400.134751, 93.85362)"><g><path d="M 55.546875 -86.140625 L 55.546875 -68.921875 L 25.890625 -68.921875 L 25.890625 -51.796875 L 54.296875 -51.796875 L 54.296875 -34.5625 L 25.890625 -34.5625 L 25.890625 -17.234375 L 55.546875 -17.234375 L 55.546875 0 L 6.265625 0 L 6.265625 -86.140625 Z M 55.546875 -86.140625"/></g></g></g><g fill-opacity="1" fill="#f2efeb"><g transform="translate(460.699375, 93.85362)"><g/></g></g><g fill-opacity="1" fill="#f2efeb"><g transform="translate(489.206563, 93.85362)"><g><path d="M 25.890625 -86.140625 L 25.890625 0 L 6.265625 0 L 6.265625 -86.140625 Z M 25.890625 -86.140625"/></g></g></g><g fill-opacity="1" fill="#f2efeb"><g transform="translate(521.368462, 93.85362)"><g><path d="M 25.890625 -53.46875 L 25.890625 0 L 6.265625 0 L 6.265625 -86.140625 L 25.890625 -86.140625 L 60.140625 -32.6875 L 60.359375 -32.6875 L 60.359375 -86.140625 L 79.984375 -86.140625 L 79.984375 0 L 60.359375 0 L 26.109375 -53.46875 Z M 25.890625 -53.46875"/></g></g></g><g fill-opacity="1" fill="#f2efeb"><g transform="translate(607.620893, 93.85362)"><g><path d="M 0.828125 -68.921875 L 0.828125 -86.140625 L 61.40625 -86.140625 L 61.40625 -68.921875 L 40.9375 -68.921875 L 40.9375 0 L 21.296875 0 L 21.296875 -68.921875 Z M 0.828125 -68.921875"/></g></g></g><g fill-opacity="1" fill="#f2efeb"><g transform="translate(669.856301, 93.85362)"><g><path d="M 55.546875 -86.140625 L 55.546875 -68.921875 L 25.890625 -68.921875 L 25.890625 -51.796875 L 54.296875 -51.796875 L 54.296875 -34.5625 L 25.890625 -34.5625 L 25.890625 -17.234375 L 55.546875 -17.234375 L 55.546875 0 L 6.265625 0 L 6.265625 -86.140625 Z M 55.546875 -86.140625"/></g></g></g><g fill-opacity="1" fill="#f2efeb"><g transform="translate(730.420925, 93.85362)"><g><path d="M 6.265625 -86.140625 L 37.0625 -86.140625 C 45.351562 -86.140625 52.109375 -83.929688 57.328125 -79.515625 C 62.546875 -75.097656 65.15625 -68.78125 65.15625 -60.5625 C 65.15625 -54.226562 63.570312 -48.921875 60.40625 -44.640625 C 57.238281 -40.359375 52.941406 -37.347656 47.515625 -35.609375 L 77.171875 0 L 52.203125 0 L 25.890625 -34.046875 L 25.890625 0 L 6.265625 0 Z M 25.890625 -47.921875 L 28.1875 -47.921875 C 30 -47.921875 31.53125 -47.957031 32.78125 -48.03125 C 34.039062 -48.101562 35.46875 -48.347656 37.0625 -48.765625 C 38.664062 -49.179688 39.953125 -49.769531 40.921875 -50.53125 C 41.898438 -51.300781 42.738281 -52.414062 43.4375 -53.875 C 44.132812 -55.34375 44.484375 -57.117188 44.484375 -59.203125 C 44.484375 -61.296875 44.132812 -63.070312 43.4375 -64.53125 C 42.738281 -65.988281 41.898438 -67.097656 40.921875 -67.859375 C 39.953125 -68.628906 38.664062 -69.222656 37.0625 -69.640625 C 35.46875 -70.066406 34.039062 -70.3125 32.78125 -70.375 C 31.53125 -70.445312 30 -70.484375 28.1875 -70.484375 L 25.890625 -70.484375 Z M 25.890625 -47.921875"/></g></g></g><g fill-opacity="1" fill="#f2efeb"><g transform="translate(805.186952, 93.85362)"><g><path d="M 50.015625 -86.140625 L 84.796875 0 L 63.703125 0 L 57.328125 -17.234375 L 24.546875 -17.234375 L 18.171875 0 L -2.921875 0 L 31.84375 -86.140625 Z M 50.640625 -34.453125 L 41.03125 -59.515625 L 40.828125 -59.515625 L 31.21875 -34.453125 Z M 50.640625 -34.453125"/></g></g></g><g fill-opacity="1" fill="#f2efeb"><g transform="translate(887.05364, 93.85362)"><g><path d="M 52.109375 -17.75 C 55.097656 -17.75 58.003906 -18.203125 60.828125 -19.109375 C 63.648438 -20.015625 65.71875 -20.882812 67.03125 -21.71875 L 69.015625 -23.078125 L 77.375 -6.375 C 77.09375 -6.164062 76.707031 -5.882812 76.21875 -5.53125 C 75.738281 -5.1875 74.609375 -4.539062 72.828125 -3.59375 C 71.054688 -2.65625 69.160156 -1.835938 67.140625 -1.140625 C 65.117188 -0.453125 62.472656 0.164062 59.203125 0.71875 C 55.929688 1.28125 52.554688 1.5625 49.078125 1.5625 C 41.066406 1.5625 33.476562 -0.398438 26.3125 -4.328125 C 19.144531 -8.265625 13.367188 -13.675781 8.984375 -20.5625 C 4.597656 -27.457031 2.40625 -34.910156 2.40625 -42.921875 C 2.40625 -48.972656 3.691406 -54.78125 6.265625 -60.34375 C 8.835938 -65.914062 12.265625 -70.6875 16.546875 -74.65625 C 20.828125 -78.625 25.820312 -81.789062 31.53125 -84.15625 C 37.238281 -86.53125 43.085938 -87.71875 49.078125 -87.71875 C 54.648438 -87.71875 59.785156 -87.054688 64.484375 -85.734375 C 69.179688 -84.410156 72.503906 -83.085938 74.453125 -81.765625 L 77.375 -79.78125 L 69.015625 -63.078125 C 68.535156 -63.492188 67.804688 -63.992188 66.828125 -64.578125 C 65.859375 -65.171875 63.910156 -65.953125 60.984375 -66.921875 C 58.054688 -67.898438 55.097656 -68.390625 52.109375 -68.390625 C 47.367188 -68.390625 43.117188 -67.625 39.359375 -66.09375 C 35.609375 -64.5625 32.632812 -62.539062 30.4375 -60.03125 C 28.25 -57.53125 26.578125 -54.832031 25.421875 -51.9375 C 24.273438 -49.050781 23.703125 -46.113281 23.703125 -43.125 C 23.703125 -36.582031 26.15625 -30.71875 31.0625 -25.53125 C 35.96875 -20.34375 42.984375 -17.75 52.109375 -17.75 Z M 52.109375 -17.75"/></g></g></g><g fill-opacity="1" fill="#f2efeb"><g transform="translate(965.683221, 93.85362)"><g><path d="M 0.828125 -68.921875 L 0.828125 -86.140625 L 61.40625 -86.140625 L 61.40625 -68.921875 L 40.9375 -68.921875 L 40.9375 0 L 21.296875 0 L 21.296875 -68.921875 Z M 0.828125 -68.921875"/></g></g></g><g fill-opacity="1" fill="#f2efeb"><g transform="translate(1027.91867, 93.85362)"><g><path d="M 25.890625 -86.140625 L 25.890625 0 L 6.265625 0 L 6.265625 -86.140625 Z M 25.890625 -86.140625"/></g></g></g><g fill-opacity="1" fill="#f2efeb"><g transform="translate(1060.080569, 93.85362)"><g><path d="M 33.203125 0 L -2.921875 -86.140625 L 19.21875 -86.140625 L 40.9375 -29.546875 L 62.65625 -86.140625 L 84.796875 -86.140625 L 48.65625 0 Z M 33.203125 0"/></g></g></g><g fill-opacity="1" fill="#f2efeb"><g transform="translate(1141.947257, 93.85362)"><g><path d="M 55.546875 -86.140625 L 55.546875 -68.921875 L 25.890625 -68.921875 L 25.890625 -51.796875 L 54.296875 -51.796875 L 54.296875 -34.5625 L 25.890625 -34.5625 L 25.890625 -17.234375 L 55.546875 -17.234375 L 55.546875 0 L 6.265625 0 L 6.265625 -86.140625 Z M 55.546875 -86.140625"/></g></g></g></g></g><g transform="matrix(1, 0, 0, 1, 1298, 472)"><g clip-path="url(#b0e724746e)"><g clip-path="url(#e75b9f36f3)"><g fill-opacity="1" fill="#f2efeb"><g transform="translate(0.513213, 9.601132)"><g><path d="M -0.144531 -6.632812 L -0.144531 -8.519531 L 6.136719 -8.519531 L 6.136719 -6.40625 L 3.941406 -6.40625 L 3.941406 -6.632812 L 4.167969 -6.632812 L 4.167969 0.226562 L 1.824219 0.226562 L 1.824219 -6.632812 L 2.050781 -6.632812 L 2.050781 -6.40625 L -0.144531 -6.40625 Z M 0.304688 -6.632812 L 0.0820312 -6.632812 L 0.0820312 -6.859375 L 2.277344 -6.859375 L 2.277344 0 L 2.050781 0 L 2.050781 -0.226562 L 3.941406 -0.226562 L 3.941406 0 L 3.714844 0 L 3.714844 -6.859375 L 5.910156 -6.859375 L 5.910156 -6.632812 L 5.683594 -6.632812 L 5.683594 -8.292969 L 5.910156 -8.292969 L 5.910156 -8.066406 L 0.0820312 -8.066406 L 0.0820312 -8.292969 L 0.304688 -8.292969 Z M 0.304688 -6.632812"/></g></g></g></g><g clip-path="url(#cc8a9590ff)"><g fill-opacity="1" fill="#f2efeb"><g transform="translate(6.504058, 9.601132)"><g><path d="M 7.234375 0.0195312 L 6.839844 -4.898438 L 7.066406 -4.914062 L 7.066406 -4.6875 L 7.015625 -4.6875 L 7.015625 -4.914062 L 7.230469 -4.839844 L 5.476562 0.175781 L 4.03125 0.175781 L 2.28125 -4.839844 L 2.492188 -4.914062 L 2.492188 -4.6875 L 2.441406 -4.6875 L 2.441406 -4.914062 L 2.667969 -4.898438 L 2.257812 0.226562 L -0.0859375 0.226562 L 0.699219 -8.519531 L 3.070312 -8.519531 L 4.964844 -3.589844 L 4.753906 -3.507812 L 4.542969 -3.589844 L 6.4375 -8.519531 L 8.8125 -8.519531 L 9.59375 0.226562 L 7.25 0.226562 Z M 7.683594 -0.0195312 L 7.457031 0 L 7.457031 -0.226562 L 9.347656 -0.226562 L 9.347656 0 L 9.121094 0.0195312 L 8.378906 -8.273438 L 8.605469 -8.292969 L 8.605469 -8.066406 L 6.59375 -8.066406 L 6.59375 -8.292969 L 6.804688 -8.210938 L 4.753906 -2.878906 L 2.703125 -8.210938 L 2.914062 -8.292969 L 2.914062 -8.066406 L 0.90625 -8.066406 L 0.90625 -8.292969 L 1.128906 -8.273438 L 0.386719 0.0195312 L 0.160156 0 L 0.160156 -0.226562 L 2.050781 -0.226562 L 2.050781 0 L 1.824219 -0.0195312 L 2.234375 -5.140625 L 2.652344 -5.140625 L 4.40625 -0.125 L 4.191406 -0.0507812 L 4.191406 -0.277344 L 5.316406 -0.277344 L 5.316406 -0.0507812 L 5.105469 -0.125 L 6.855469 -5.140625 L 7.273438 -5.140625 Z M 7.683594 -0.0195312"/></g></g></g></g><g clip-path="url(#4762cb0e88)"><g fill-opacity="1" fill="#f2efeb"><g transform="translate(0.513213, 9.601132)"><g><path d="M 0.078125 -6.625 L 0.078125 -8.28125 L 5.90625 -8.28125 L 5.90625 -6.625 L 3.9375 -6.625 L 3.9375 0 L 2.046875 0 L 2.046875 -6.625 Z M 0.078125 -6.625"/></g></g></g></g><g fill-opacity="1" fill="#f2efeb"><g transform="translate(6.504058, 9.601132)"><g><path d="M 7.453125 0 L 7.0625 -4.90625 L 7.015625 -4.90625 L 5.3125 -0.046875 L 4.1875 -0.046875 L 2.484375 -4.90625 L 2.4375 -4.90625 L 2.046875 0 L 0.15625 0 L 0.90625 -8.28125 L 2.90625 -8.28125 L 4.75 -3.5 L 6.59375 -8.28125 L 8.59375 -8.28125 L 9.34375 0 Z M 7.453125 0"/></g></g></g></g></g><g transform="matrix(1, 0, 0, 1, 506, 244)"><g clip-path="url(#d543fdf312)"><g clip-path="url(#24b1684aae)"><path stroke-miterlimit="4" stroke-opacity="1" stroke-width="1" stroke="#f4f6fc" d="M -0.000802976 0.497228 L 54.176147 0.499133" stroke-linejoin="miter" fill="none" transform="matrix(-0.779911, 0.368683, -0.368683, -0.779911, 46.620194, 77.403715)" stroke-linecap="butt"/></g><path stroke-miterlimit="4" stroke-opacity="1" stroke-width="1" stroke="#f4f6fc" d="M 0.00149421 0.498319 L 62.587184 0.498602" stroke-linejoin="miter" fill="none" transform="matrix(0.719391, 0.476094, -0.476094, 0.719391, 7.142422, 98.422052)" stroke-linecap="butt"/><path stroke-miterlimit="4" stroke-opacity="1" stroke-width="1" stroke="#f4f6fc" d="M 0.0000562671 0.501729 L 91.416876 0.501146" stroke-linejoin="miter" fill="none" transform="matrix(-0.807558, 0.303379, -0.303379, -0.807558, 128.535072, 103.428596)" stroke-linecap="butt"/><path stroke-miterlimit="4" stroke-opacity="1" stroke-width="1" stroke="#f4f6fc" d="M 0.00195348 0.498984 L 47.669939 0.498754" stroke-linejoin="miter" fill="none" transform="matrix(0.28477, -0.814306, 0.814306, 0.28477, 127.979837, 102.87512)" stroke-linecap="butt"/><path stroke-miterlimit="4" stroke-opacity="1" stroke-width="1" stroke="#f4f6fc" d="M -0.00035516 0.497889 L 67.553933 0.501659" stroke-linejoin="miter" fill="none" transform="matrix(0.812788, 0.289074, -0.289074, 0.812788, 87.202809, 44.271205)" stroke-linecap="butt"/><path stroke-miterlimit="4" stroke-opacity="1" stroke-width="1" stroke="#f4f6fc" d="M 0.0000466232 0.501731 L 41.402124 0.499825" stroke-linejoin="miter" fill="none" transform="matrix(0.677829, -0.533607, 0.533607, 0.677829, 86.790835, 44.675562)" stroke-linecap="butt"/><path stroke-miterlimit="4" stroke-opacity="1" stroke-width="1" stroke="#f4f6fc" d="M 0.00126218 0.50208 L 80.778818 0.499543" stroke-linejoin="miter" fill="none" transform="matrix(0.860773, 0.0570896, -0.0570896, 0.860773, 45.617421, 17.884157)" stroke-linecap="butt"/><path stroke-miterlimit="4" stroke-opacity="1" stroke-width="1" stroke="#f4f6fc" d="M -0.00120699 0.500327 L 13.091994 0.499092" stroke-linejoin="miter" fill="none" transform="matrix(0.747089, -0.431332, 0.431332, 0.747089, 46.062438, 14.231159)" stroke-linecap="butt"/><g clip-path="url(#0deb8f1110)"><path fill-rule="nonzero" fill-opacity="1" d="M 63.542969 128.574219 C 56.808594 129.8125 55.804688 130.820312 54.566406 137.550781 C 53.324219 130.820312 52.320312 129.8125 45.589844 128.574219 C 52.320312 127.335938 53.324219 126.332031 54.566406 119.597656 C 55.804688 126.332031 56.808594 127.335938 63.542969 128.574219 Z M 63.542969 128.574219" fill="#f2efeb"/></g><g clip-path="url(#6916706bff)"><path fill-rule="nonzero" fill-opacity="1" d="M 61.167969 128.710938 C 56.316406 129.601562 55.59375 130.328125 54.699219 135.179688 C 53.804688 130.328125 53.082031 129.601562 48.230469 128.710938 C 53.082031 127.816406 53.804688 127.089844 54.699219 122.238281 C 55.59375 127.089844 56.316406 127.816406 61.167969 128.710938 Z M 61.167969 128.710938" fill="#000000"/></g><g clip-path="url(#5bb1c4d748)"><path fill-rule="nonzero" fill-opacity="1" d="M 109.316406 74.285156 C 104.175781 74.625 98.550781 75.789062 93.117188 77.777344 C 67.410156 87.140625 67.652344 121.722656 67.507812 144.035156 C 66.976562 224.210938 65.375 263.15625 64.984375 271.550781 L 64.597656 271.550781 C 64.210938 263.109375 62.609375 224.210938 62.074219 144.035156 C 61.929688 121.722656 62.171875 87.140625 36.464844 77.777344 C 31.035156 75.839844 25.40625 74.675781 20.265625 74.285156 C 34.671875 73.269531 53.152344 65.945312 59.410156 51.976562 C 62.464844 45.183594 64.402344 36.695312 64.792969 29.03125 C 65.230469 36.695312 67.167969 45.183594 70.222656 51.976562 C 76.480469 65.945312 94.914062 73.269531 109.316406 74.285156 Z M 109.316406 74.285156" fill="#f2efeb"/></g><g clip-path="url(#02b682cc40)"><path fill-rule="nonzero" fill-opacity="1" d="M 18.144531 96.683594 C 11.410156 97.921875 10.40625 98.925781 9.167969 105.660156 C 7.925781 98.925781 6.921875 97.921875 0.191406 96.683594 C 6.921875 95.445312 7.925781 94.4375 9.167969 87.707031 C 10.40625 94.4375 11.410156 95.445312 18.144531 96.683594 Z M 18.144531 96.683594" fill="#f2efeb"/></g><g clip-path="url(#2cf54226e4)"><path fill-rule="nonzero" fill-opacity="1" d="M 135.582031 103.019531 C 128.847656 104.261719 127.84375 105.265625 126.605469 111.996094 C 125.363281 105.265625 124.359375 104.261719 117.628906 103.019531 C 124.359375 101.78125 125.363281 100.777344 126.605469 94.042969 C 127.84375 100.777344 128.847656 101.78125 135.582031 103.019531 Z M 135.582031 103.019531" fill="#f2efeb"/></g><g clip-path="url(#7173e0dc30)"><path fill-rule="nonzero" fill-opacity="1" d="M 148.820312 64.203125 C 142.089844 65.441406 141.085938 66.445312 139.84375 73.179688 C 138.605469 66.445312 137.601562 65.441406 130.867188 64.203125 C 137.601562 62.964844 138.605469 61.957031 139.84375 55.226562 C 141.085938 61.957031 142.089844 62.964844 148.820312 64.203125 Z M 148.820312 64.203125" fill="#f2efeb"/></g><g clip-path="url(#c824317d50)"><path fill-rule="nonzero" fill-opacity="1" d="M 121.507812 22.921875 C 114.773438 24.164062 113.769531 25.167969 112.53125 31.898438 C 111.292969 25.167969 110.289062 24.164062 103.554688 22.921875 C 110.289062 21.683594 111.292969 20.679688 112.53125 13.945312 C 113.769531 20.679688 114.773438 21.683594 121.507812 22.921875 Z M 121.507812 22.921875" fill="#f2efeb"/></g><g clip-path="url(#93e8bedcd5)"><path fill-rule="nonzero" fill-opacity="1" d="M 97.917969 44.675781 C 91.1875 45.914062 90.183594 46.917969 88.941406 53.648438 C 87.703125 46.917969 86.699219 45.914062 79.964844 44.675781 C 86.699219 43.433594 87.703125 42.429688 88.941406 35.699219 C 90.183594 42.429688 91.1875 43.433594 97.917969 44.675781 Z M 97.917969 44.675781" fill="#f2efeb"/></g><g clip-path="url(#3451eec368)"><path fill-rule="nonzero" fill-opacity="1" d="M 52.929688 16.222656 C 47.90625 17.148438 47.15625 17.898438 46.234375 22.921875 C 45.308594 17.898438 44.558594 17.148438 39.535156 16.222656 C 44.558594 15.296875 45.308594 14.546875 46.234375 9.523438 C 47.15625 14.546875 47.90625 15.296875 52.929688 16.222656 Z M 52.929688 16.222656" fill="#f2efeb"/></g><g clip-path="url(#29307da67b)"><path fill-rule="nonzero" fill-opacity="1" d="M 63.84375 7.242188 C 58.820312 8.167969 58.070312 8.917969 57.144531 13.941406 C 56.21875 8.917969 55.46875 8.167969 50.445312 7.242188 C 55.46875 6.320312 56.21875 5.570312 57.144531 0.546875 C 58.070312 5.570312 58.820312 6.320312 63.84375 7.242188 Z M 63.84375 7.242188" fill="#f2efeb"/></g><g clip-path="url(#ee1811a146)"><path fill-rule="nonzero" fill-opacity="1" d="M 93.140625 73.992188 C 89.851562 74.210938 86.257812 74.953125 82.785156 76.226562 C 66.351562 82.222656 66.507812 104.363281 66.414062 118.648438 C 66.074219 169.984375 65.050781 194.921875 64.800781 200.296875 L 64.554688 200.296875 C 64.304688 194.894531 63.28125 169.984375 62.941406 118.648438 C 62.847656 104.363281 63.003906 82.222656 46.570312 76.226562 C 43.097656 74.984375 39.503906 74.242188 36.214844 73.992188 C 45.425781 73.339844 57.238281 68.648438 61.234375 59.707031 C 63.1875 55.359375 64.429688 49.921875 64.675781 45.015625 C 64.957031 49.921875 66.195312 55.359375 68.148438 59.707031 C 72.148438 68.648438 83.929688 73.339844 93.140625 73.992188 Z M 93.140625 73.992188" fill="#000000"/></g><g clip-path="url(#5e8a8bf006)"><path fill-rule="nonzero" fill-opacity="1" d="M 146.449219 64.335938 C 141.597656 65.230469 140.871094 65.953125 139.980469 70.804688 C 139.085938 65.953125 138.363281 65.230469 133.511719 64.335938 C 138.363281 63.445312 139.085938 62.71875 139.980469 57.867188 C 140.871094 62.71875 141.597656 63.445312 146.449219 64.335938 Z M 146.449219 64.335938" fill="#000000"/></g><g clip-path="url(#fa2ef8a3e6)"><path fill-rule="nonzero" fill-opacity="1" d="M 119.136719 23.058594 C 114.28125 23.949219 113.558594 24.675781 112.664062 29.527344 C 111.773438 24.675781 111.046875 23.949219 106.195312 23.058594 C 111.046875 22.164062 111.773438 21.441406 112.664062 16.589844 C 113.558594 21.441406 114.28125 22.164062 119.136719 23.058594 Z M 119.136719 23.058594" fill="#000000"/></g><g clip-path="url(#c38e54983b)"><path fill-rule="nonzero" fill-opacity="1" d="M 15.769531 96.816406 C 10.917969 97.710938 10.195312 98.433594 9.300781 103.289062 C 8.40625 98.433594 7.683594 97.710938 2.832031 96.816406 C 7.683594 95.925781 8.40625 95.199219 9.300781 90.347656 C 10.195312 95.199219 10.917969 95.925781 15.769531 96.816406 Z M 15.769531 96.816406" fill="#000000"/></g><g clip-path="url(#dc1266bb4d)"><path fill-rule="nonzero" fill-opacity="1" d="M 133.207031 103.15625 C 128.355469 104.046875 127.632812 104.773438 126.738281 109.625 C 125.84375 104.773438 125.121094 104.046875 120.269531 103.15625 C 125.121094 102.261719 125.84375 101.539062 126.738281 96.6875 C 127.632812 101.539062 128.355469 102.261719 133.207031 103.15625 Z M 133.207031 103.15625" fill="#000000"/></g><g clip-path="url(#6fd57c6314)"><path fill-rule="nonzero" fill-opacity="1" d="M 95.546875 44.808594 C 90.695312 45.703125 89.96875 46.425781 89.078125 51.277344 C 88.183594 46.425781 87.460938 45.703125 82.609375 44.808594 C 87.460938 43.914062 88.183594 43.191406 89.078125 38.339844 C 89.96875 43.191406 90.695312 43.914062 95.546875 44.808594 Z M 95.546875 44.808594" fill="#000000"/></g><g clip-path="url(#a7ac0a4bbc)"><path fill-rule="nonzero" fill-opacity="1" d="M 61.617188 7.40625 C 58.382812 8 57.902344 8.484375 57.304688 11.71875 C 56.710938 8.484375 56.226562 8 52.992188 7.40625 C 56.226562 6.808594 56.710938 6.328125 57.304688 3.09375 C 57.902344 6.328125 58.382812 6.808594 61.617188 7.40625 Z M 61.617188 7.40625" fill="#000000"/></g><g clip-path="url(#76126c380a)"><path fill-rule="nonzero" fill-opacity="1" d="M 50.695312 16.371094 C 47.460938 16.96875 46.976562 17.449219 46.382812 20.683594 C 45.785156 17.449219 45.304688 16.96875 42.070312 16.371094 C 45.304688 15.777344 45.785156 15.292969 46.382812 12.058594 C 46.976562 15.292969 47.460938 15.777344 50.695312 16.371094 Z M 50.695312 16.371094" fill="#000000"/></g></g></g></svg>